Coordinates
version=1
nRows=13
nColumns=63
inDegrees=yes

Units are S.I. units (second, meters, Newtons, ...)
If the header above contains a line with 'inDegrees', this indicates whether rotational values are in degrees (yes) or radians (no).

endheader
time	pelvis_tilt	pelvis_list	pelvis_rotation	pelvis_tx	pelvis_ty	pelvis_tz	hip_flexion_r	hip_adduction_r	hip_rotation_r	knee_angle_r	knee_angle_r_beta	ankle_angle_r	subtalar_angle_r	mtp_angle_r	hip_flexion_l	hip_adduction_l	hip_rotation_l	knee_angle_l	knee_angle_l_beta	ankle_angle_l	subtalar_angle_l	mtp_angle_l	L5_S1_Flex_Ext	L5_S1_Lat_Bending	L5_S1_axial_rotation	L4_L5_Flex_Ext	L4_L5_Lat_Bending	L4_L5_axial_rotation	L3_L4_Flex_Ext	L3_L4_Lat_Bending	L3_L4_axial_rotation	L2_L3_Flex_Ext	L2_L3_Lat_Bending	L2_L3_axial_rotation	L1_L2_Flex_Ext	L1_L2_Lat_Bending	L1_L2_axial_rotation	L1_T12_Flex_Ext	L1_T12_Lat_Bending	L1_T12_axial_rotation	Abs_r3	Abs_r2	Abs_r1	Abs_t1	Abs_t2	neck_flexion	neck_bending	neck_rotation	arm_flex_r	arm_add_r	arm_rot_r	elbow_flex_r	pro_sup_r	wrist_flex_r	wrist_dev_r	arm_flex_l	arm_add_l	arm_rot_l	elbow_flex_l	pro_sup_l	wrist_flex_l	wrist_dev_l
2.000000	0.971443	-7.231901	92.455094	0.251721	0.660761	0.580405	17.365684	4.081341	-7.804971	24.918366	0.434908	38.058445	7.270072	0.000000	12.342809	-4.813072	1.081482	15.912245	0.277721	38.472765	-0.142288	0.000000	0.039774	-1.590938	3.473653	0.073864	-2.115947	3.690757	0.065345	-3.868206	3.690757	0.045458	-3.868206	3.039447	0.036934	-3.244240	2.822343	0.022727	-2.464362	2.605240	0.284102	-17.997004	19.319417	0.000000	0.000000	24.768158	1.931605	-25.269837	-48.964478	-74.618093	-1.373078	10.296655	26.175295	-6.923524	6.918355	-24.199237	-24.674296	-22.532934	26.911306	26.023796	-11.149334	-15.076483
2.016949	0.828604	-7.224379	93.104318	0.251085	0.660467	0.579379	17.552473	3.838083	-7.553257	24.978374	0.435955	38.719044	8.455452	0.000000	12.732902	-4.804694	-0.008625	16.478242	0.287600	39.032824	1.872806	0.000000	0.034264	-1.633517	3.813339	0.063631	-2.172578	4.051673	0.056292	-3.971734	4.051673	0.039160	-3.971734	3.336672	0.031817	-3.331068	3.098338	0.019578	-2.530318	2.860004	0.244742	-18.478673	21.208649	0.000000	0.000000	24.356910	2.704829	-25.870153	-44.618424	-73.721456	4.252378	10.071337	27.087238	-7.123524	6.690374	-24.814337	-25.231088	-23.218574	27.411793	21.517193	-9.880574	-15.192041
2.033898	0.660607	-7.204933	93.707385	0.250689	0.660173	0.578484	17.721090	3.550504	-7.579506	24.971540	0.435836	39.623709	9.970037	0.000000	13.138720	-4.808021	-1.148642	17.104411	0.298528	39.680418	3.966511	0.000000	0.023897	-1.679381	4.143833	0.044378	-2.233577	4.402823	0.039260	-4.083247	4.402823	0.027311	-4.083247	3.625854	0.022190	-3.424594	3.366864	0.013655	-2.601361	3.107875	0.170691	-18.997494	23.046757	0.000000	0.000000	23.901866	3.496905	-26.594050	-40.623508	-72.735653	9.684429	9.960518	27.592552	-7.358359	6.307045	-25.265376	-26.050290	-23.990735	27.514585	18.207503	-8.791040	-15.438555
2.050847	0.482580	-7.169001	94.315518	0.250423	0.659860	0.577715	17.864810	3.212106	-7.929660	24.931619	0.435139	40.732693	11.657914	0.000000	13.567009	-4.823905	-2.316671	17.807592	0.310801	40.407846	6.176915	0.000000	0.009283	-1.725265	4.451500	0.017239	-2.294603	4.729719	0.015251	-4.194810	4.729719	0.010609	-4.194810	3.895063	0.008620	-3.518161	3.616844	0.005304	-2.672436	3.338625	0.066306	-19.516545	24.757908	0.000000	0.000000	23.390561	4.309186	-27.343378	-37.048981	-71.680240	14.918474	9.967374	27.455411	-7.596997	5.853653	-25.689999	-27.320743	-23.258156	26.900543	14.680090	-7.601229	-16.070068
2.067797	0.295329	-7.081358	94.931606	0.250262	0.659555	0.577059	17.944606	2.839114	-8.514436	24.876508	0.434177	41.954019	13.275267	0.000000	13.975805	-4.821458	-3.259793	18.577248	0.324234	41.123067	8.165344	0.000000	-0.012220	-1.772210	4.733099	-0.022694	-2.357040	5.028918	-0.020077	-4.308952	5.028918	-0.013967	-4.308952	4.141462	-0.011348	-3.613891	3.845643	-0.006983	-2.745154	3.549824	-0.087289	-20.047597	26.324077	0.000000	0.000000	22.829394	5.203092	-28.169240	-33.592123	-70.573412	20.296098	9.967123	26.629998	-7.791058	5.389492	-25.977681	-28.675654	-23.522167	26.115713	13.212696	-6.660670	-16.479413
2.084746	0.115079	-6.934033	95.561671	0.250140	0.659277	0.576482	17.952050	2.453311	-9.314759	24.825075	0.433279	43.209084	14.712133	0.000000	14.358973	-4.815581	-4.005693	19.411220	0.338790	41.831939	9.992504	0.000000	-0.039722	-1.817152	4.986394	-0.073768	-2.416812	5.298044	-0.065260	-4.418223	5.298044	-0.045398	-4.418223	4.363095	-0.036886	-3.705536	4.051445	-0.022697	-2.814768	3.739796	-0.283731	-20.555986	27.732829	0.000000	0.000000	22.219075	6.148163	-29.051459	-30.173963	-69.414900	25.634230	9.933187	25.292561	-7.942636	4.956658	-26.156274	-30.075713	-24.731155	25.224405	13.511821	-5.975996	-16.574979
2.101695	-0.044509	-6.721378	96.222406	0.249980	0.659068	0.575941	17.878705	2.083087	-10.265162	24.777715	0.432453	44.432210	15.857881	0.000000	14.707973	-4.802916	-4.487405	20.294090	0.354199	42.521896	11.600394	0.000000	-0.072521	-1.856990	5.203683	-0.134679	-2.469797	5.528913	-0.119145	-4.515085	5.528913	-0.082884	-4.515085	4.553222	-0.067343	-3.786774	4.227992	-0.041439	-2.876477	3.902762	-0.518011	-21.006642	28.941322	0.000000	0.000000	21.562785	7.102953	-29.939160	-26.589988	-68.225617	30.904344	9.800632	23.687699	-8.049805	4.578441	-26.242568	-31.458423	-26.925636	24.312409	15.106659	-5.532809	-16.287520
2.118644	-0.143218	-6.447270	96.889449	0.249699	0.658942	0.575387	17.731759	1.770668	-11.347644	24.731965	0.431654	45.607746	16.788284	0.000000	15.018675	-4.825813	-4.741175	21.207478	0.370140	43.210564	13.006320	0.000000	-0.107978	-1.883954	5.396490	-0.200525	-2.505659	5.733771	-0.177396	-4.580645	5.733771	-0.123408	-4.580645	4.721929	-0.100268	-3.841759	4.384648	-0.061698	-2.918245	4.047368	-0.771273	-21.311663	30.013659	0.000000	0.000000	20.861379	7.961264	-30.805727	-23.088409	-67.049656	35.526489	9.621828	22.098640	-8.143612	4.199485	-26.169750	-32.808202	-29.714265	23.473396	16.670014	-5.289220	-15.809403
2.135593	-0.159651	-6.123343	97.580974	0.249222	0.658918	0.574816	17.521479	1.539552	-12.521875	24.678264	0.430717	46.715155	17.510384	0.000000	15.295728	-4.890316	-4.758934	22.127369	0.386195	43.891998	14.200789	0.000000	-0.144503	-1.893941	5.555448	-0.268357	-2.518942	5.902664	-0.237404	-4.604928	5.902664	-0.165153	-4.604928	4.861017	-0.134186	-3.862125	4.513802	-0.082569	-2.933715	4.166586	-1.032172	-21.424640	30.897735	0.000000	0.000000	20.146045	8.681698	-31.558670	-19.476861	-65.947098	39.997264	9.330186	20.379032	-8.194681	3.849243	-25.966002	-34.004391	-33.375305	22.809198	17.733469	-4.953318	-15.033684
2.152542	-0.045100	-5.739091	98.366128	0.248360	0.658959	0.574306	17.242789	1.418492	-13.866432	24.605072	0.429440	47.749163	18.101012	0.000000	15.559975	-4.996549	-4.379119	23.059294	0.402461	44.548133	15.039571	0.000000	-0.181766	-1.877037	5.669796	-0.337558	-2.496460	6.024158	-0.298624	-4.563829	6.024158	-0.207741	-4.563829	4.961071	-0.168788	-3.827655	4.606709	-0.103861	-2.907531	4.252347	-1.298339	-21.233423	31.533702	0.000000	0.000000	19.432891	9.181676	-32.089279	-16.043767	-64.965921	44.181244	9.019661	18.472923	-8.245830	3.514173	-25.622308	-34.930364	-38.021665	22.309485	18.403308	-4.390641	-13.790881
2.169492	0.182328	-5.360302	99.189354	0.247204	0.659044	0.573798	16.952851	1.399108	-15.232125	24.524694	0.428037	48.665539	18.487115	0.000000	15.820624	-5.147573	-3.722248	23.938453	0.417805	45.156143	15.565987	0.000000	-0.213765	-1.837933	5.761218	-0.396984	-2.444450	6.121294	-0.351195	-4.468750	6.121294	-0.244313	-4.468750	5.041066	-0.198503	-3.747912	4.680990	-0.122146	-2.846958	4.320913	-1.526906	-20.791062	32.042166	0.000000	0.000000	18.771407	9.458110	-32.395382	-13.065356	-64.106789	47.558110	8.762402	16.598923	-8.297963	3.129386	-25.048522	-35.636228	-43.435779	21.999243	19.452315	-3.778033	-12.175428
2.186441	0.518316	-4.969115	100.117891	0.245705	0.659190	0.573388	16.639514	1.455461	-16.714269	24.439124	0.426543	49.441754	18.756215	0.000000	16.077077	-5.324453	-2.845364	24.750704	0.431981	45.727730	15.948399	0.000000	-0.241884	-1.776684	5.808223	-0.449203	-2.362989	6.171237	-0.397392	-4.319828	6.171237	-0.276449	-4.319828	5.082195	-0.224614	-3.623013	4.719181	-0.138213	-2.752083	4.356167	-1.727755	-20.098200	32.303593	0.000000	0.000000	18.175802	9.545783	-32.392916	-10.143319	-63.440891	51.081022	8.492780	14.751330	-8.383025	2.675098	-24.432670	-36.157414	-49.011446	21.832475	20.293598	-2.956180	-10.427243
2.203390	0.963620	-4.574203	101.147034	0.243883	0.659372	0.573088	16.311811	1.602302	-18.245905	24.336783	0.424757	50.025919	18.890087	0.000000	16.337483	-5.529619	-1.729811	25.486650	0.444826	46.239207	16.131232	0.000000	-0.264665	-1.694265	5.821802	-0.491510	-2.253372	6.185665	-0.434819	-4.119435	6.185665	-0.302486	-4.119435	5.094077	-0.245768	-3.454945	4.730215	-0.151230	-2.624416	4.366352	-1.890479	-19.165861	32.379119	0.000000	0.000000	17.669986	9.464450	-32.156819	-7.460612	-62.961806	54.776196	8.273948	12.646132	-8.490527	2.147380	-23.781596	-36.470141	-54.885560	21.904833	22.150202	-2.387687	-8.515219
